<?xml version="1.0" encoding="utf-8"?>
<!-- Generator: Adobe Illustrator 22.0.0, SVG Export Plug-In . SVG Version: 6.00 Build 0)  -->
<svg version="1.1" id="Layer_1" xmlns="http://www.w3.org/2000/svg" xmlns:xlink="http://www.w3.org/1999/xlink" x="0px" y="0px"
	 viewBox="0 0 175 33.8" style="enable-background:new 0 0 175 33.8;" xml:space="preserve">
<style type="text/css">
	.st0{fill-rule:evenodd;clip-rule:evenodd;fill:#ec2739;}
</style>
<g>
	<path class="st0" d="M37.9,33.4h-9.2l-1.3-1.7c-1.8,0.7-3.4,1.2-4.8,1.6c-1.4,0.3-2.9,0.5-4.6,0.5c-5.6,0-10-1.4-13.1-4.1
		C1.6,26.9,0,22.6,0,17.1c0-5.6,1.5-9.9,4.4-12.8c3-2.9,7.5-4.4,13.6-4.4c5.9,0,10.4,1.6,13.5,4.7c2.7,2.7,4,6.2,4,10.4
		c0,3.1-0.1,5.4-0.4,6.8c-0.4,2.2-1.4,4.3-2.8,6.2L37.9,33.4L37.9,33.4z M27.4,16.8c0-3-0.6-5.4-1.9-7.3c-1.6-2.4-4.2-3.6-7.6-3.6
		c-3.2,0-5.7,0.9-7.3,2.8c-1.6,1.8-2.4,4.5-2.4,8c0,3.9,0.9,6.8,2.8,8.6c1.7,1.6,4.2,2.4,7.5,2.4c3,0,5.2-0.9,6.7-2.7
		C26.7,23.1,27.4,20.4,27.4,16.8L27.4,16.8z"/>
	<path class="st0" d="M72.6,23.1c0,2.9-1,5.3-2.9,7.3c-1.9,2-4.3,2.9-7.3,2.9H39.4v-5.9h19.1c1.3,0,2.4-0.3,3.2-0.9
		c1-0.7,1.5-1.6,1.5-2.8c0-2.8-2-4.2-5.9-4.2h-9.6c-2.8,0-5.2-0.9-7.3-2.6c-2.1-1.7-3.1-3.9-3.1-6.6c0-2.9,1-5.3,3.1-7.1
		c2-1.8,4.7-2.7,8.1-2.7h22.1v5.6H51c-0.9,0-1.8,0.4-2.6,1.1C47.4,7.9,47,8.8,47,9.8c0,1.1,0.4,2.1,1.3,2.8c0.9,0.8,1.9,1.1,3.1,1.1
		H62c3.3,0,5.9,0.9,7.8,2.6C71.7,18,72.6,20.3,72.6,23.1L72.6,23.1z"/>
	<path class="st0" d="M110.4,16.8c0,6.4-1.8,10.9-5.3,13.7c-2.9,2.2-7.1,3.3-12.5,3.3c-6.1,0-10.6-1.3-13.5-3.8
		c-3.2-2.8-4.8-7.3-4.8-13.5c0-5.1,1.4-9.1,4.3-11.9c3.1-3.1,7.7-4.6,13.9-4.6c6.8,0,11.5,1.5,14.3,4.4
		C109.2,7,110.4,11.1,110.4,16.8L110.4,16.8z M102,16.6c0-3.2-0.8-5.8-2.3-7.7c-1.7-2.1-4.3-3.2-7.6-3.2c-3.3,0-5.8,1.1-7.5,3.4
		c-1.4,1.9-2.1,4.4-2.1,7.4c0,3.5,0.6,6.1,1.7,7.8c1.6,2.3,4.4,3.5,8.7,3.5c3.6,0,6.1-1.1,7.5-3.4C101.5,22.8,102,20.1,102,16.6
		L102,16.6z"/>
	<path class="st0" d="M143.3,19.6h-22.6v13.6h-8.1V13.1c0-1.2,0.2-2.6,0.7-4.1c0.9-2.7,2.6-4.7,5.1-6.1c2.9-1.6,7.7-2.4,14.3-2.4
		c14.1,0,28.2,0,42.3,0V6h-12.2v27.2h-7.6V6c-7.8,0-15.2-0.1-23-0.1c-3,0-5.1,0.2-6.3,0.5c-2.1,0.5-3.5,1.7-4.4,3.4
		c-0.7,1.3-1,2.7-1,4.3h22.8V19.6L143.3,19.6z"/>
</g>
</svg>
